<svg xmlns="http://www.w3.org/2000/svg" width="37.736" height="67.1" viewBox="0 0 37.736 67.1"><defs><style>.a{fill:#fff;}</style></defs><path class="a" d="M27.414,30.588,13.261,26.447a3.865,3.865,0,0,1,1.088-7.575h8.689a8,8,0,0,1,4.482,1.376,2.043,2.043,0,0,0,2.556-.262l4.561-4.456a2.124,2.124,0,0,0-.236-3.211A18.531,18.531,0,0,0,23.063,8.387V2.1a2.1,2.1,0,0,0-2.1-2.1H16.773a2.1,2.1,0,0,0-2.1,2.1V8.387h-.328A14.359,14.359,0,0,0,.063,24.062c.55,6.042,5.164,10.956,10.982,12.66l13.433,3.932a3.865,3.865,0,0,1-1.088,7.575H14.7a8,8,0,0,1-4.482-1.376,2.043,2.043,0,0,0-2.556.262L3.1,51.57a2.124,2.124,0,0,0,.236,3.211,18.531,18.531,0,0,0,11.336,3.932V65a2.1,2.1,0,0,0,2.1,2.1h4.194a2.1,2.1,0,0,0,2.1-2.1V58.686c6.107-.118,11.834-3.748,13.852-9.528a14.391,14.391,0,0,0-9.5-18.57Z" transform="translate(-0.003)"/></svg>