<svg xmlns="http://www.w3.org/2000/svg" width="67.1" height="67.1" viewBox="0 0 67.1 67.1"><defs><style>.a{fill:#fff;}</style></defs><path class="a" d="M68.765,61.935,32.814,29.207l1.673-1.677a7.673,7.673,0,0,0,2.223-4.955c.066-.029.131-.06.194-.094l6.749-4.22a2.839,2.839,0,0,0-.15-3.768L31.766,2.723a2.82,2.82,0,0,0-3.758-.15L23.8,9.34c-.034.063-.065.129-.094.195a7.633,7.633,0,0,0-4.941,2.228l-6.384,6.4a7.673,7.673,0,0,0-2.223,4.954c-.066.029-.131.06-.194.095l-6.748,4.22A2.839,2.839,0,0,0,3.363,31.2L15.1,42.971a2.82,2.82,0,0,0,3.758.15l4.209-6.767c.035-.063.065-.128.094-.194A7.632,7.632,0,0,0,28.1,33.931l1.854-1.859L62.6,68.12a2.251,2.251,0,0,0,3.242.374l3.3-3.308a2.266,2.266,0,0,0-.374-3.251Z" transform="translate(-2.571 -1.928)"/></svg>