<svg xmlns="http://www.w3.org/2000/svg" xmlns:xlink="http://www.w3.org/1999/xlink" width="123.038" height="131.819" viewBox="0 0 123.038 131.819"><defs><style>.a{fill:#036;}.b{filter:url(#a);}</style><filter id="a" x="0" y="0" width="123.038" height="131.819" filterUnits="userSpaceOnUse"><feOffset dy="3" input="SourceAlpha"/><feGaussianBlur stdDeviation="3" result="b"/><feFlood flood-opacity="0.161"/><feComposite operator="in" in2="b"/><feComposite in="SourceGraphic"/></filter></defs><g class="b" transform="matrix(1, 0, 0, 1, 0, 0)"><path class="a" d="M93.768,20.173c-3.781-2.125-9.813,1.3-13.467,7.67L73.658,39.391a14.56,14.56,0,0,0,.985,14.917l.192.291a87.666,87.666,0,0,0,8.551,9.935,7.55,7.55,0,1,1-12.966,4.255A9.172,9.172,0,0,0,67.729,61.8c-2.374-2.641-7.224,2.345-8.791,7.552l-.075.286C57.3,74.774,56.3,79.259,56.6,79.7c.174.281.338.563.493.854a8.5,8.5,0,1,1-11.488-3.495l.568-.286c.3-.141,1.22-2.28,1.984-4.841L49.57,67.3a4.552,4.552,0,0,0,.211-.788l4.208-14.964L49.5,60.739c-.525-1.7-1.407-1.783-3.326-.427-1.14.858-3.063,2.491-3.987,3.138a16.464,16.464,0,0,0-3.992,5.2A6.159,6.159,0,0,1,36.272,71a7.388,7.388,0,0,1-10.479-1.065A7.463,7.463,0,0,1,30.07,57.962c1.919-.432,8.336-4.348,12.177-7.13a12.534,12.534,0,0,0,1.783-1.426l10.334-7.834-8.978,4.841a10,10,0,0,0-2,.08c-3.274.352-6.7.854-7.336,1.642a4.686,4.686,0,0,1-1.36,1.276A6.664,6.664,0,1,1,26.937,38.57a7.184,7.184,0,0,1,4.058-1.285c2.43.075,8.772,1.36,14.04.432l1.351-.211C51.733,36.586,58,31.942,60.57,27.247l5.554-9.7c3.063-5.343,2.852-11.183-.493-13.111L59.426.875a12.573,12.573,0,0,0-11.042,0L6.832,24.17a11.684,11.684,0,0,0-5.624,9.405V79.282a12.067,12.067,0,0,0,5.526,9.476l41.514,23.375a12.511,12.511,0,0,0,11.042,0l41.4-23.375a12.039,12.039,0,0,0,5.554-9.476V33.5a12.145,12.145,0,0,0-5.484-9.476l-6.849-3.861" transform="translate(7.79 6.4)"/></g></svg>