<svg xmlns="http://www.w3.org/2000/svg" width="75.023" height="70.611" viewBox="0 0 75.023 70.611"><path d="M35.526,19.9l6.9,1.972a1.16,1.16,0,0,1-.317,2.276H37.581a3.548,3.548,0,0,1-1.42-.3,1.71,1.71,0,0,0-1.945.276L31.8,26.534a1.654,1.654,0,0,0,.207,2.538,10.077,10.077,0,0,0,4.386,1.586V33.1A2.213,2.213,0,0,0,38.6,35.305h2.207A2.213,2.213,0,0,0,43.015,33.1V30.672a7.759,7.759,0,0,0,6.8-8.688A8.092,8.092,0,0,0,43.9,15.4L37,13.433a1.16,1.16,0,0,1,.317-2.276h4.524a3.548,3.548,0,0,1,1.42.3,1.71,1.71,0,0,0,1.945-.276l2.413-2.413a1.654,1.654,0,0,0-.207-2.538,10.077,10.077,0,0,0-4.386-1.586V2.207A2.213,2.213,0,0,0,40.822,0H38.615a2.213,2.213,0,0,0-2.207,2.207V4.634a7.759,7.759,0,0,0-6.8,8.688A8.092,8.092,0,0,0,35.526,19.9ZM73.631,45.249a4.142,4.142,0,0,0-5.558,0L56.047,55.441a8.021,8.021,0,0,1-5.213,1.931H35.43a2.21,2.21,0,0,1,0-4.413H45.621a4.417,4.417,0,0,0,.221-8.826H25a14.746,14.746,0,0,0-9.64,3.627l-6.054,5.2H2.082A2.154,2.154,0,0,0,0,55.165V68.4a2.154,2.154,0,0,0,2.082,2.207H48.545a8.075,8.075,0,0,0,5.213-1.931L73.452,51.993a4.582,4.582,0,0,0,.179-6.744Z" fill="#f5f6f7"/></svg>