<svg xmlns="http://www.w3.org/2000/svg" width="256" height="102.068" viewBox="0 0 256 102.068"><defs><style>.a,.b{fill:#036;}.a{font-size:61px;font-family:Catamaran-Regular, Catamaran; src: url(https://fonts.gstatic.com/s/catamaran/v17/o-0mIpQoyXQa2RxT7-5B6Ryxs2E_6n1iPHjct6L1SoM-jCpoiyAaBO9U6VLKzA.woff2) format('woff2');}</style></defs><g transform="translate(-51 -9)"><text class="a" transform="translate(163 77)"><tspan x="0" y="0">BIDIT</tspan></text><path class="b" d="M84.211,18.049c-3.39-1.906-8.8,1.169-12.077,6.878L66.178,35.283a13.057,13.057,0,0,0,.883,13.377l.172.261A78.616,78.616,0,0,0,74.9,57.83a6.771,6.771,0,1,1-11.627,3.815,8.225,8.225,0,0,0-2.415-6.264c-2.129-2.368-6.478,2.1-7.883,6.773l-.067.257c-1.4,4.6-2.3,8.623-2.028,9.015.156.252.3.5.442.766a7.622,7.622,0,1,1-10.3-3.134l.509-.257a14.725,14.725,0,0,0,1.779-4.341l1.266-4.152a4.082,4.082,0,0,0,.189-.707L48.54,46.182l-4.026,8.245c-.471-1.527-1.262-1.6-2.982-.383-1.022.77-2.747,2.234-3.576,2.814a14.764,14.764,0,0,0-3.58,4.665,5.523,5.523,0,0,1-1.725,2.1,6.625,6.625,0,0,1-9.4-.955A6.693,6.693,0,0,1,27.09,51.937c1.72-.387,7.475-3.9,10.92-6.394a11.24,11.24,0,0,0,1.6-1.279l9.267-7.025L40.825,41.58a8.963,8.963,0,0,0-1.792.072c-2.936.315-6.007.766-6.579,1.472a4.2,4.2,0,0,1-1.22,1.144,5.976,5.976,0,1,1-6.953-9.721,6.442,6.442,0,0,1,3.639-1.153c2.179.067,7.866,1.22,12.59.387l1.211-.189c4.8-.824,10.415-4.989,12.721-9.2L59.422,15.7C62.169,10.906,61.98,5.669,58.98,3.94L53.415.743a11.275,11.275,0,0,0-9.9,0L6.251,21.633a10.477,10.477,0,0,0-5.044,8.434V71.055a10.821,10.821,0,0,0,4.955,8.5l37.228,20.961a11.219,11.219,0,0,0,9.9,0L90.42,79.553a10.8,10.8,0,0,0,4.981-8.5V30a10.891,10.891,0,0,0-4.917-8.5L84.342,18.04" transform="translate(49.792 9.402)"/></g></svg>